<mxfile host="app.diagrams.net" modified="2023-11-26T00:01:43.720Z" agent="Mozilla/5.0 (Windows NT 10.0; Win64; x64) AppleWebKit/537.36 (KHTML, like Gecko) Chrome/119.0.0.0 Safari/537.36 Edg/119.0.0.0" etag="5EZhz4C_fa_Pvd-8Fqic" version="22.1.4" type="github">
  <diagram name="Page-1" id="4oBJb_ONjKUgZG0ZzEjh">
    <mxGraphModel dx="1426" dy="789" grid="1" gridSize="10" guides="1" tooltips="1" connect="1" arrows="1" fold="1" page="1" pageScale="1" pageWidth="850" pageHeight="1100" math="0" shadow="0">
      <root>
        <mxCell id="0" />
        <mxCell id="1" parent="0" />
        <mxCell id="w85llsiYgXnkQZVkUz1n-1" value="&lt;font style=&quot;font-size: 36px;&quot;&gt;E&lt;/font&gt;" style="ellipse;whiteSpace=wrap;html=1;aspect=fixed;" vertex="1" parent="1">
          <mxGeometry x="440" y="480" width="80" height="80" as="geometry" />
        </mxCell>
        <mxCell id="w85llsiYgXnkQZVkUz1n-9" style="edgeStyle=orthogonalEdgeStyle;rounded=0;orthogonalLoop=1;jettySize=auto;html=1;exitX=1;exitY=0.5;exitDx=0;exitDy=0;entryX=0;entryY=0.5;entryDx=0;entryDy=0;curved=1;strokeWidth=4;" edge="1" parent="1" source="w85llsiYgXnkQZVkUz1n-2" target="w85llsiYgXnkQZVkUz1n-1">
          <mxGeometry relative="1" as="geometry" />
        </mxCell>
        <mxCell id="w85llsiYgXnkQZVkUz1n-10" style="edgeStyle=orthogonalEdgeStyle;rounded=0;orthogonalLoop=1;jettySize=auto;html=1;exitX=0.5;exitY=0;exitDx=0;exitDy=0;entryX=0.5;entryY=1;entryDx=0;entryDy=0;curved=1;strokeWidth=4;" edge="1" parent="1" source="w85llsiYgXnkQZVkUz1n-2" target="w85llsiYgXnkQZVkUz1n-3">
          <mxGeometry relative="1" as="geometry" />
        </mxCell>
        <mxCell id="w85llsiYgXnkQZVkUz1n-2" value="&lt;font style=&quot;font-size: 36px;&quot;&gt;D&lt;/font&gt;" style="ellipse;whiteSpace=wrap;html=1;aspect=fixed;" vertex="1" parent="1">
          <mxGeometry x="280" y="480" width="80" height="80" as="geometry" />
        </mxCell>
        <mxCell id="w85llsiYgXnkQZVkUz1n-3" value="&lt;font style=&quot;font-size: 36px;&quot;&gt;C&lt;/font&gt;" style="ellipse;whiteSpace=wrap;html=1;aspect=fixed;" vertex="1" parent="1">
          <mxGeometry x="520" y="280" width="80" height="80" as="geometry" />
        </mxCell>
        <mxCell id="w85llsiYgXnkQZVkUz1n-8" style="edgeStyle=orthogonalEdgeStyle;rounded=0;orthogonalLoop=1;jettySize=auto;html=1;exitX=1;exitY=0.5;exitDx=0;exitDy=0;entryX=0;entryY=0.5;entryDx=0;entryDy=0;curved=1;strokeWidth=4;" edge="1" parent="1" source="w85llsiYgXnkQZVkUz1n-4" target="w85llsiYgXnkQZVkUz1n-3">
          <mxGeometry relative="1" as="geometry" />
        </mxCell>
        <mxCell id="w85llsiYgXnkQZVkUz1n-4" value="&lt;font style=&quot;font-size: 36px;&quot;&gt;B&lt;/font&gt;" style="ellipse;whiteSpace=wrap;html=1;aspect=fixed;" vertex="1" parent="1">
          <mxGeometry x="200" y="280" width="80" height="80" as="geometry" />
        </mxCell>
        <mxCell id="w85llsiYgXnkQZVkUz1n-6" style="edgeStyle=orthogonalEdgeStyle;rounded=0;orthogonalLoop=1;jettySize=auto;html=1;exitX=0;exitY=0.5;exitDx=0;exitDy=0;entryX=0.5;entryY=0;entryDx=0;entryDy=0;curved=1;strokeWidth=4;" edge="1" parent="1" source="w85llsiYgXnkQZVkUz1n-5" target="w85llsiYgXnkQZVkUz1n-4">
          <mxGeometry relative="1" as="geometry" />
        </mxCell>
        <mxCell id="w85llsiYgXnkQZVkUz1n-7" style="edgeStyle=orthogonalEdgeStyle;rounded=0;orthogonalLoop=1;jettySize=auto;html=1;exitX=1;exitY=0.5;exitDx=0;exitDy=0;curved=1;strokeWidth=4;" edge="1" parent="1" source="w85llsiYgXnkQZVkUz1n-5" target="w85llsiYgXnkQZVkUz1n-3">
          <mxGeometry relative="1" as="geometry" />
        </mxCell>
        <mxCell id="w85llsiYgXnkQZVkUz1n-5" value="&lt;font style=&quot;font-size: 36px;&quot;&gt;A&lt;/font&gt;" style="ellipse;whiteSpace=wrap;html=1;aspect=fixed;" vertex="1" parent="1">
          <mxGeometry x="360" y="120" width="80" height="80" as="geometry" />
        </mxCell>
      </root>
    </mxGraphModel>
  </diagram>
</mxfile>
